HIERARCHY
ROOT Hips
{
	OFFSET 0.000000 0.000000 0.000000
	CHANNELS 6 Xposition Yposition Zposition Xrotation Yrotation Zrotation
	JOINT LeftUpLeg_virtual
	{
		OFFSET 0.000000 0.000000 0.000000
		CHANNELS 3 Xrotation Yrotation Zrotation
		JOINT LeftUpLeg
		{
			OFFSET 13.026900 -6.336304 -1.092800
			CHANNELS 3 Xrotation Yrotation Zrotation
			JOINT LeftLeg
			{
				OFFSET 0.524474 -46.096886 9.782700
				CHANNELS 3 Xrotation Yrotation Zrotation
				JOINT LeftFoot
				{
					OFFSET -0.524474 -53.427422 -12.948200
					CHANNELS 3 Xrotation Yrotation Zrotation
					JOINT LeftToeBase
					{
						OFFSET 0.192200 -14.009700 16.364100
						CHANNELS 3 Xrotation Yrotation Zrotation
						JOINT LeftToe_End
						{
							OFFSET -1.784700 -0.561700 9.474800
							CHANNELS 3 Xrotation Yrotation Zrotation
							End Site
							{
								OFFSET 0 0 0
							}
						}
					}
				}
			}
		}
	}
	JOINT RightUpLeg_virtual
	{
		OFFSET 0.000000 0.000000 0.000000
		CHANNELS 3 Xrotation Yrotation Zrotation
		JOINT RightUpLeg
		{
			OFFSET -12.883000 -6.336304 -1.092800
			CHANNELS 3 Xrotation Yrotation Zrotation
			JOINT RightLeg
			{
				OFFSET -0.524587 -46.096825 9.782800
				CHANNELS 3 Xrotation Yrotation Zrotation
				JOINT RightFoot
				{
					OFFSET 0.524587 -53.427383 -12.948300
					CHANNELS 3 Xrotation Yrotation Zrotation
					JOINT RightToeBase
					{
						OFFSET -0.192200 -14.009700 16.364100
						CHANNELS 3 Xrotation Yrotation Zrotation
						JOINT RightToe_End
						{
							OFFSET 1.784700 -0.561700 9.474800
							CHANNELS 3 Xrotation Yrotation Zrotation
							End Site
							{
								OFFSET 0 0 0
							}
						}
					}
				}
			}
		}
	}
	JOINT Spine_virtual
	{
		OFFSET 0.000000 0.000000 0.000000
		CHANNELS 3 Xrotation Yrotation Zrotation
		JOINT Spine
		{
			OFFSET 0.072000 7.257294 -0.789700
			CHANNELS 3 Xrotation Yrotation Zrotation
			JOINT Spine1
			{
				OFFSET 0.000000 12.508769 -0.658067
				CHANNELS 3 Xrotation Yrotation Zrotation
				JOINT Spine1_split
				{
					OFFSET 0.000000 12.508769 -0.658067
					CHANNELS 3 Xrotation Yrotation Zrotation
					JOINT Spine2
					{
						OFFSET 0.000000 12.508769 -0.658067
						CHANNELS 3 Xrotation Yrotation Zrotation
						JOINT Neck_virtual
						{
							OFFSET 0.000000 0.000000 0.000000
							CHANNELS 3 Xrotation Yrotation Zrotation
							JOINT Neck
							{
								OFFSET 0.000000 14.033295 7.520400
								CHANNELS 3 Xrotation Yrotation Zrotation
								JOINT Head
								{
									OFFSET 0.000000 8.198502 5.703100
									CHANNELS 3 Xrotation Yrotation Zrotation
									JOINT HeadTop_End
									{
										OFFSET 0.000000 17.760803 13.332701
										CHANNELS 3 Xrotation Yrotation Zrotation
										End Site
										{
											OFFSET 0 0 0
										}
									}
								}
							}
						}
						JOINT LeftShoulder_virtual
						{
							OFFSET 0.000000 0.000000 0.000000
							CHANNELS 3 Xrotation Yrotation Zrotation
							JOINT LeftShoulder
							{
								OFFSET 6.292450 5.785301 -0.669000
								CHANNELS 3 Xrotation Yrotation Zrotation
								JOINT LeftShoulder_split
								{
									OFFSET 6.292450 5.785301 -0.669000
									CHANNELS 3 Xrotation Yrotation Zrotation
									JOINT LeftArm
									{
										OFFSET 13.907140 -6.093903 1.965100
										CHANNELS 3 Xrotation Yrotation Zrotation
										JOINT LeftForeArm
										{
											OFFSET 34.140198 0.000000 0.000000
											CHANNELS 3 Xrotation Yrotation Zrotation
											JOINT LeftHand
											{
												OFFSET 40.960209 0.000000 0.000000
												CHANNELS 3 Xrotation Yrotation Zrotation
												End Site
												{
													OFFSET 0 0 0
												}
											}
										}
									}
								}
							}
						}
						JOINT RightShoulder_virtual
						{
							OFFSET 0.000000 0.000000 0.000000
							CHANNELS 3 Xrotation Yrotation Zrotation
							JOINT RightShoulder
							{
								OFFSET -6.292450 5.785301 -0.669000
								CHANNELS 3 Xrotation Yrotation Zrotation
								JOINT RightShoulder_split
								{
									OFFSET -6.292450 5.785301 -0.669000
									CHANNELS 3 Xrotation Yrotation Zrotation
									JOINT RightArm
									{
										OFFSET -13.907140 -6.093903 1.965100
										CHANNELS 3 Xrotation Yrotation Zrotation
										JOINT RightForeArm
										{
											OFFSET -34.140198 0.000000 0.000000
											CHANNELS 3 Xrotation Yrotation Zrotation
											JOINT RightHand
											{
												OFFSET -40.960209 0.000000 0.000000
												CHANNELS 3 Xrotation Yrotation Zrotation
												End Site
												{
													OFFSET 0 0 0
												}
											}
										}
									}
								}
							}
						}
					}
				}
			}
		}
	}
}
MOTION
Frames: 5
Frame Time: 0.03333333
-3.328932 102.915550 0.928337 0.000000 0.000000 0.000000 51.491970 -72.599611 52.722169 -51.631429 2.612719 -2.028103 41.540941 -7.472072 1.723771 -0.925755 -0.529672 0.103651 0.079788 1.041999 -0.544007 0.000000 0.000000 0.000000 55.956967 -73.481409 57.900497 -40.658330 -2.620983 -20.155692 39.245519 -4.933865 -1.112388 -9.355771 -1.041801 15.156535 -1.262992 0.448498 0.439982 0.000000 0.000000 0.000000 53.290727 -71.556873 53.541033 6.176961 3.517152 4.683472 13.165473 6.736767 6.561351 0.533351 -1.102322 0.609426 0.000000 0.000000 0.000000 12.138283 6.553646 6.256591 1.734320 -0.689246 2.073690 8.641823 4.802852 -5.516770 0.000000 0.000000 0.000000 12.723103 6.536202 6.270813 1.526323 -2.043439 -10.014668 0.787027 1.586445 -0.878650 -52.471251 -25.380291 -93.594014 -0.703762 -24.258030 -0.044567 0.000000 0.000000 0.000000 12.083038 6.720041 6.400454 0.934006 12.720061 22.433722 -6.539966 -0.434879 -0.443564 -52.866624 22.562374 73.039687 0.289327 5.933580 1.422820 0.000000 0.000000 0.000000 
-3.306051 102.911400 1.073452 0.000000 0.000000 0.000000 51.700731 -72.642279 52.913496 -51.687453 2.655897 -2.051935 41.522615 -7.427402 1.744702 -0.896658 -0.479634 0.077527 0.077652 1.042671 -0.542227 0.000000 0.000000 0.000000 55.928850 -73.470282 57.860151 -40.614627 -2.604398 -20.157628 39.174191 -4.937704 -1.116670 -9.326009 -1.086593 15.123219 -1.257732 0.450052 0.443500 0.000000 0.000000 0.000000 53.270469 -71.558567 53.502081 6.127529 3.517869 4.680217 13.206416 6.719696 6.538482 0.547637 -1.140291 0.594575 0.000000 0.000000 0.000000 12.158021 6.544811 6.251953 1.727360 -0.658946 2.077304 8.582618 4.855873 -5.545487 0.000000 0.000000 0.000000 12.716509 6.522729 6.275756 1.537396 -2.020993 -10.049037 0.814932 1.550483 -0.842307 -52.442937 -25.403405 -93.571194 -0.715363 -24.227507 -0.073479 0.000000 0.000000 0.000000 12.070356 6.689210 6.398821 0.957082 12.661558 22.402662 -6.495956 -0.387156 -0.422246 -52.742738 22.392922 73.018561 0.247776 6.234138 1.446911 0.000000 0.000000 0.000000 
-3.266393 102.930550 1.260399 0.000000 0.000000 0.000000 51.889521 -72.643146 53.071980 -51.725091 2.640753 -2.103141 41.482942 -7.414940 1.745382 -0.900093 -0.459188 0.062569 0.069478 1.052060 -0.549200 0.000000 0.000000 0.000000 55.861044 -73.429950 57.771625 -40.578574 -2.623398 -20.203570 39.124703 -4.939099 -1.106983 -9.318545 -1.147122 15.110311 -1.248425 0.452586 0.461028 0.000000 0.000000 0.000000 53.243671 -71.528104 53.435671 6.065555 3.524474 4.678660 13.259114 6.715188 6.496624 0.585487 -1.097766 0.607483 0.000000 0.000000 0.000000 12.188115 6.541762 6.223441 1.723643 -0.600149 2.047353 8.404619 5.050908 -5.585493 0.000000 0.000000 0.000000 12.725584 6.519033 6.258939 1.552846 -2.015876 -10.081115 0.824942 1.494377 -0.797393 -52.337240 -25.449118 -93.528683 -0.715657 -24.238577 -0.091816 0.000000 0.000000 0.000000 12.091667 6.669676 6.369130 0.977806 12.594024 22.362605 -6.431249 -0.338730 -0.392308 -52.269792 22.431234 72.876158 0.206744 7.013217 1.458886 0.000000 0.000000 0.000000 
-3.214694 102.958061 1.474163 0.000000 0.000000 0.000000 52.013106 -72.608244 53.154284 -51.746866 2.580632 -2.180537 41.438584 -7.387538 1.716836 -0.917017 -0.435846 0.099741 0.074650 1.070797 -0.570645 0.000000 0.000000 0.000000 55.725584 -73.351737 57.603937 -40.556379 -2.671059 -20.292332 39.091003 -4.937625 -1.083114 -9.333948 -1.220368 15.113767 -1.215437 0.459013 0.488308 0.000000 0.000000 0.000000 53.194821 -71.469085 53.332999 6.003125 3.534622 4.675991 13.316568 6.718429 6.442821 0.627113 -1.024780 0.625902 0.000000 0.000000 0.000000 12.228541 6.539687 6.178801 1.721661 -0.519433 1.992542 8.135686 5.372398 -5.630738 0.000000 0.000000 0.000000 12.748880 6.519348 6.225027 1.571247 -2.021001 -10.106694 0.808750 1.434407 -0.776777 -52.186013 -25.535861 -93.463291 -0.703528 -24.324319 -0.101157 0.000000 0.000000 0.000000 12.134775 6.658835 6.319769 0.987207 12.526739 22.310261 -6.384620 -0.277167 -0.357164 -51.548428 22.684979 72.644990 0.182571 8.004314 1.452898 0.000000 0.000000 0.000000 
-3.149691 102.975082 1.729897 0.000000 0.000000 0.000000 52.145943 -72.550297 53.221961 -51.773199 2.520489 -2.274565 41.408165 -7.288278 1.656492 -0.952186 -0.377337 0.247726 0.107538 1.093937 -0.606361 0.000000 0.000000 0.000000 55.606298 -73.249865 57.429808 -40.547196 -2.734068 -20.409688 39.050507 -4.933235 -1.050146 -9.390031 -1.308842 15.112748 -1.124889 0.467934 0.519395 0.000000 0.000000 0.000000 53.157136 -71.392907 53.230348 5.947306 3.546211 4.670287 13.377416 6.723683 6.381393 0.664950 -0.942145 0.641462 0.000000 0.000000 0.000000 12.275205 6.532780 6.125453 1.719671 -0.424995 1.906836 7.805649 5.783771 -5.663742 0.000000 0.000000 0.000000 12.783870 6.516844 6.179419 1.589622 -2.031385 -10.122430 0.788423 1.375469 -0.802766 -52.028491 -25.691357 -93.367914 -0.671066 -24.511613 -0.101529 0.000000 0.000000 0.000000 12.184906 6.651366 6.260343 0.980383 12.468545 22.250009 -6.356880 -0.192942 -0.322641 -50.728235 23.099486 72.358198 0.182351 8.953110 1.429751 0.000000 0.000000 0.000000 
